<?xml version="1.0" encoding="UTF-8" standalone="no"?>
<!-- Created with Inkscape (http://www.inkscape.org/) -->

<svg
   width="210mm"
   height="297mm"
   viewBox="0 0 210 297"
   version="1.1"
   id="svg5"
   xml:space="preserve"
   sodipodi:docname="nyu_torch.svg"
   inkscape:export-filename="nyu_torch.png"
   inkscape:export-xdpi="960.12"
   inkscape:export-ydpi="960.12"
   inkscape:version="1.2.2 (1:1.2.2+202305151915+b0a8486541)"
   xmlns:inkscape="http://www.inkscape.org/namespaces/inkscape"
   xmlns:sodipodi="http://sodipodi.sourceforge.net/DTD/sodipodi-0.dtd"
   xmlns="http://www.w3.org/2000/svg"
   xmlns:svg="http://www.w3.org/2000/svg"><sodipodi:namedview
     id="namedview7"
     pagecolor="#ffffff"
     bordercolor="#000000"
     borderopacity="0.25"
     inkscape:showpageshadow="2"
     inkscape:pageopacity="0.0"
     inkscape:pagecheckerboard="0"
     inkscape:deskcolor="#d1d1d1"
     inkscape:document-units="mm"
     showgrid="false"
     inkscape:zoom="2.284549"
     inkscape:cx="117.96639"
     inkscape:cy="421.30854"
     inkscape:window-width="1366"
     inkscape:window-height="704"
     inkscape:window-x="0"
     inkscape:window-y="27"
     inkscape:window-maximized="1"
     inkscape:current-layer="layer1" /><defs
     id="defs2"><rect
       x="222.51234"
       y="333.50866"
       width="125.65087"
       height="127.52763"
       id="rect1233" /><rect
       x="382.31963"
       y="340.56207"
       width="193.34721"
       height="393.91236"
       id="rect1227" /></defs><g
     inkscape:label="Layer 1"
     inkscape:groupmode="layer"
     id="layer1"><rect
       style="fill:#fefcff;fill-opacity:1;stroke-width:0.264583"
       id="rect2065"
       width="50"
       height="50"
       x="16.107521"
       y="85.487747"
       inkscape:export-filename="nyu_torch.png"
       inkscape:export-xdpi="960.12"
       inkscape:export-ydpi="960.12" /><path
       style="fill:#650190;fill-opacity:1;stroke-width:0.0177198"
       d="m 40.945879,129.0675 c -0.04386,-0.004 -0.120034,-0.0139 -0.169282,-0.0237 l -0.08955,-0.0178 -0.07539,-0.72156 c -0.178135,-1.70487 -0.467256,-4.57366 -0.790626,-7.84489 -0.511509,-5.17448 -0.55667,-5.62843 -0.567294,-5.70233 -0.0082,-0.0572 -0.0022,-0.075 0.03941,-0.11627 l 0.04909,-0.0489 1.515039,0.005 c 1.331491,0.004 2.194526,0.0155 2.20828,0.0293 0.0024,0.003 -0.05447,0.61425 -0.126392,1.35963 -0.07193,0.74538 -0.187351,1.9453 -0.256492,2.66649 -0.336913,3.51431 -0.580006,5.84816 -0.825018,7.92074 -0.09397,0.79488 -0.287351,2.33612 -0.30172,2.40465 -0.0055,0.0264 -0.02345,0.0517 -0.03982,0.0563 -0.09549,0.0269 -0.410664,0.0454 -0.570231,0.0336 z m -1.547531,-15.13079 c -0.0015,-9.7e-4 -0.321903,-0.008 -0.711739,-0.0134 -0.78163,-0.0128 -1.180959,-0.0274 -1.199115,-0.0444 -0.03162,-0.0295 -0.04716,-0.50352 -0.04436,-1.35263 l 0.0031,-0.93393 0.301236,-0.006 c 0.448898,-0.009 6.026804,9.8e-4 6.139899,0.0115 0.0536,0.005 0.312389,0.0133 0.575082,0.0188 0.262692,0.005 0.484276,0.0166 0.492407,0.0247 0.0248,0.0248 0.02432,1.68163 -5.29e-4,1.95195 -0.01215,0.13157 -0.02608,0.25916 -0.03106,0.28352 l -0.0091,0.0443 -2.325262,0.005 c -1.278893,0.003 -2.519294,0.006 -2.756446,0.009 -0.237153,0.003 -0.432513,0.003 -0.434134,0.003 z m -1.580007,-3.15359 c -0.03899,-0.004 -0.170552,-0.0156 -0.292376,-0.0266 -0.849891,-0.0758 -1.789583,-0.34321 -2.557412,-0.72777 -1.284522,-0.64335 -2.318906,-1.66078 -2.819557,-2.77336 -0.333272,-0.74062 -0.493348,-1.49892 -0.49502,-2.34495 -0.0011,-0.55686 0.0441,-0.93096 0.177318,-1.4676 0.205978,-0.82975 0.532782,-1.57268 1.353765,-3.07752 0.582072,-1.066932 0.931235,-1.792615 1.141146,-2.371698 0.179389,-0.494883 0.313972,-1.025933 0.376449,-1.485442 l 0.03053,-0.224583 0.05074,0.02622 c 0.245133,0.126762 0.509572,0.569654 0.872772,1.461738 0.06498,0.159595 0.20084,0.470625 0.301923,0.691177 0.339397,0.740524 0.406398,0.943467 0.405841,1.229217 -5.3e-4,0.256066 -0.04819,0.375481 -0.402709,1.008451 -0.184364,0.32917 -0.286575,0.55114 -0.491339,1.06701 -0.292371,0.73659 -0.451128,1.33133 -0.543351,2.03552 -0.04212,0.32162 -0.04165,1.04654 9.16e-4,1.36443 0.192375,1.43756 0.779175,2.63082 1.780418,3.62048 0.475434,0.46994 0.926935,0.822 2.036743,1.58818 0.266088,0.1837 0.477397,0.33974 0.469574,0.34676 -0.04243,0.0381 -1.135355,0.0853 -1.396363,0.0602 z m 4.728336,-0.0567 -0.09143,-0.005 -0.01296,-0.1719 c -0.02058,-0.273 0.004,-0.96949 0.04513,-1.27939 0.16992,-1.27987 0.640467,-2.41138 1.4379,-3.45768 0.229878,-0.30162 0.393171,-0.48576 0.713324,-0.80439 0.401137,-0.39924 0.765679,-0.6966 1.24221,-1.01329 0.335238,-0.22278 0.543481,-0.33609 1.433963,-0.7802 1.248729,-0.62278 1.831381,-0.93568 2.404056,-1.29104 1.242976,-0.77131 2.080318,-1.55364 2.672279,-2.49673 0.143586,-0.228752 0.370596,-0.688546 0.467862,-0.947614 0.06373,-0.169727 0.08539,-0.208663 0.130986,-0.235288 0.04625,-0.02699 0.06203,-0.02854 0.102817,-0.01 l 0.0482,0.02198 -0.01126,0.310794 c -0.08275,2.285338 -0.483086,4.140178 -1.274402,5.904618 -0.814884,1.817 -2.115069,3.54047 -3.411752,4.52246 -1.3028,0.98663 -2.999945,1.58772 -4.830886,1.71102 -0.290902,0.0196 -0.902986,0.0324 -1.066029,0.0223 z M 40.635784,110.57 c -0.975907,-0.17405 -1.916191,-0.73914 -3.153757,-1.8953 -1.064169,-0.99417 -1.675245,-2.02476 -1.895779,-3.19726 -0.109545,-0.58236 -0.123974,-1.37018 -0.03532,-1.92789 0.09215,-0.57965 0.308026,-1.20394 0.672196,-1.94388 0.309906,-0.62968 0.729373,-1.33472 1.365241,-2.294707 0.568322,-0.858009 0.919508,-1.335252 1.877654,-2.551646 0.942635,-1.196703 1.217863,-1.564452 1.598043,-2.135235 0.585742,-0.879396 0.993448,-1.68226 1.237283,-2.436467 0.06502,-0.201124 0.11699,-0.283513 0.178833,-0.283513 0.03111,0 0.368738,0.673441 0.598474,1.193738 0.438533,0.993172 0.847141,2.104314 1.183553,3.218458 0.273743,0.906605 0.340655,1.22394 0.341939,1.621715 8.2e-4,0.264448 5.31e-4,0.266865 -0.05594,0.381551 -0.08201,0.166623 -0.29484,0.411698 -0.670972,0.772586 -0.181294,0.173952 -0.402048,0.396012 -0.490561,0.493471 -0.08852,0.09746 -0.380863,0.412464 -0.649666,0.700019 -0.268799,0.28755 -0.572975,0.61448 -0.675944,0.72651 -1.150933,1.25219 -1.836532,2.29758 -2.098818,3.20026 -0.355076,1.22202 -0.304002,3.07342 0.123552,4.47854 0.109443,0.35969 0.196732,0.55434 0.399162,0.89015 0.182605,0.30292 0.288055,0.49836 0.333808,0.61867 0.0313,0.0824 0.0734,0.27715 0.07369,0.34111 2.68e-4,0.0535 -0.0038,0.0574 -0.05733,0.056 -0.03167,-9.6e-4 -0.121377,-0.0129 -0.199347,-0.0269 z m 0.950718,-0.32151 c -0.434158,-0.43551 -0.834082,-1.38289 -1.06406,-2.52063 -0.100617,-0.49778 -0.11708,-0.68206 -0.116338,-1.30241 6.74e-4,-0.61003 0.02195,-0.8469 0.124652,-1.391 0.08419,-0.44606 0.327717,-1.33476 0.410205,-1.49696 0.05977,-0.11754 0.447025,-0.68505 0.669077,-0.98053 0.512608,-0.68211 1.045944,-1.28578 2.091271,-2.36702 0.861682,-0.891299 1.091103,-1.13165 1.389204,-1.455391 0.708261,-0.769174 1.239624,-1.431552 1.672245,-2.084554 0.278457,-0.420307 0.459499,-0.733824 0.688179,-1.191761 0.166397,-0.33321 0.246017,-0.459789 0.272262,-0.432832 0.0218,0.02237 0.185968,0.315647 0.265644,0.474515 0.465652,0.928485 0.886065,2.453427 1.079984,3.917364 0.143536,1.083599 0.166909,1.734169 0.07199,2.003829 -0.03532,0.10032 -0.157823,0.22493 -0.329932,0.33557 -0.151407,0.0973 -0.575536,0.30924 -1.042974,0.52109 -0.170505,0.0773 -0.458318,0.22235 -0.639584,0.3224 -0.534283,0.29489 -1.670974,0.9555 -1.891501,1.09929 -0.43339,0.28258 -0.909004,0.67733 -1.260079,1.04584 -1.258653,1.32117 -1.99688,3.1045 -2.191563,5.29414 -0.01694,0.1905 -0.03777,0.34638 -0.04629,0.34638 -0.0086,0 -0.07709,-0.0618 -0.15239,-0.13733 z"
       id="path191" /><text
       xml:space="preserve"
       transform="scale(0.26458333)"
       id="text1225"
       style="white-space:pre;shape-inside:url(#rect1227);display:inline;fill:#650190;fill-opacity:1" /><text
       xml:space="preserve"
       transform="scale(0.26458333)"
       id="text1231"
       style="white-space:pre;shape-inside:url(#rect1233);display:inline;fill:#650190;fill-opacity:1" /></g></svg>
